# xmcd CD database file
#
# Track frame offsets:
#	150
#	25537
#	55945
#	77087
#	90881
#	117264
#	135637
#	157529
#	176884
#	196164
#	220694
#	247454
#	272643
#
# Disc length: 4003 seconds
#
# Revision: 0
# Processed by: cddbd v1.4PL0 Copyright (c) Steve Scherf et al.
# Submitted via: CDex 1.50
#
DISCID=a40fa10d
DTITLE=Ralf - Zoli Zour
DYEAR=2000
DGENRE=Rhythmic Soul
TTITLE0=En Zoli Zour
TTITLE1=Melya
TTITLE2=Akoz Ou
TTITLE3=Mon Lanz
TTITLE4=Lapli Pe Tonbe
TTITLE5=Manyel Soular
TTITLE6=Viv Koman Frer
TTITLE7=Pou Touzour
TTITLE8=La Digue
TTITLE9=Mon'n Pardonn Ou
TTITLE10=Frer
TTITLE11=Dousman
TTITLE12=Sa Ti Mon Lanmour
EXTD=YEAR: 2000
EXTT0=
EXTT1=
EXTT2=
EXTT3=
EXTT4=
EXTT5=
EXTT6=
EXTT7=
EXTT8=
EXTT9=
EXTT10=
EXTT11=
EXTT12=
PLAYORDER=
